<?xml version="1.0" encoding="UTF-8" standalone="no"?>
<!-- Created with Inkscape (http://www.inkscape.org/) -->
<svg
   xmlns:svg="http://www.w3.org/2000/svg"
   xmlns="http://www.w3.org/2000/svg"
   version="1.0"
   width="620"
   height="336.57001"
   id="svg2">
  <defs
     id="defs4" />
  <g
     transform="translate(-324.14285,-1266.3026)"
     id="layer1">
    <path
       d="M 400.7626,1592.0057 C 399.98746,1591.5331 399.02273,1590.4533 398.61876,1589.6061 C 397.98033,1588.2673 397.96693,1588.0136 398.51636,1587.6661 C 399.58944,1586.9874 400.10222,1587.2018 400.66703,1588.5654 C 401.30801,1590.1128 402.26412,1590.7086 404.10688,1590.7086 C 406.65189,1590.7086 408.35691,1587.8008 407.14248,1585.5316 C 406.62631,1584.5671 404.11038,1583.6611 403.06373,1584.0627 C 402.46719,1584.2916 402.34206,1584.1513 402.45789,1583.3836 C 402.56078,1582.7017 403.10128,1582.2458 404.28843,1581.8397 C 406.84936,1580.9635 407.45736,1579.3646 405.84337,1577.7506 C 404.23598,1576.1433 400.93862,1577.1313 400.16499,1579.4522 C 400.03798,1579.8332 399.64916,1579.9218 399.0033,1579.7168 C 397.7768,1579.3275 398.0692,1578.0689 399.80004,1576.2873 C 401.51649,1574.5205 404.59502,1574.2398 406.67393,1575.6605 C 409.05853,1577.29 409.50147,1580.3014 407.59649,1581.9325 C 406.80833,1582.6073 406.82991,1582.6756 408.25621,1584.0208 C 412.80787,1588.3135 406.22013,1595.3332 400.7626,1592.0057 z M 419.96051,1585.3315 C 417.23965,1584.3612 415.81818,1582.9317 414.14018,1579.4784 C 413.13938,1577.4187 412.9848,1576.5569 412.97803,1572.9994 C 412.9694,1568.4634 413.85809,1565.7382 416.12488,1563.3494 C 418.70225,1560.6332 423.48881,1559.4024 427.38053,1560.4551 C 429.63652,1561.0653 432.35155,1563.507 433.26264,1565.7449 L 433.91405,1567.345 L 432.29672,1567.7921 C 431.40719,1568.0379 430.63002,1568.0954 430.56969,1567.9197 C 430.13126,1566.643 428.51216,1564.6437 427.33587,1563.9265 C 424.21132,1562.0214 419.42671,1563.4942 417.5055,1566.9524 C 416.56586,1568.6437 416.42567,1569.4288 416.42567,1572.9994 C 416.42567,1576.57 416.56586,1577.3551 417.5055,1579.0464 C 418.94789,1581.6427 421.61661,1583.0658 424.55655,1582.8064 C 427.15364,1582.5772 428.64463,1581.5097 430.03149,1578.8864 C 431.07102,1576.9201 431.16774,1576.8542 432.62308,1577.1198 C 433.45454,1577.2716 434.19695,1577.4567 434.27287,1577.5313 C 434.72998,1577.98 432.23779,1582.3324 430.83736,1583.5311 C 428.07432,1585.8962 423.61393,1586.6345 419.96051,1585.3315 z M 374.31242,1572.9994 L 374.31242,1560.4734 L 376.04014,1560.4734 L 377.76786,1560.4734 L 377.76786,1565.6566 L 377.76786,1570.8397 L 384.24683,1570.8397 L 390.72579,1570.8397 L 390.72579,1565.6566 L 390.72579,1560.4734 L 392.45351,1560.4734 L 394.18123,1560.4734 L 394.18123,1572.9994 L 394.18123,1585.5254 L 392.45351,1585.5254 L 390.72579,1585.5254 L 390.72579,1579.6943 L 390.72579,1573.8633 L 384.24683,1573.8633 L 377.76786,1573.8633 L 377.76786,1579.6943 L 377.76786,1585.5254 L 376.04014,1585.5254 L 374.31242,1585.5254 L 374.31242,1572.9994 z M 925.12665,1565.226 C 924.35151,1564.7534 923.38679,1563.6736 922.98276,1562.8264 C 922.34433,1561.4876 922.33094,1561.2339 922.88035,1560.8864 C 923.95344,1560.2077 924.46623,1560.4221 925.03102,1561.7857 C 925.67205,1563.3331 926.62817,1563.9289 928.47092,1563.9289 C 931.01594,1563.9289 932.72094,1561.0211 931.50653,1558.7519 C 930.99033,1557.7874 928.47442,1556.8813 927.42772,1557.283 C 926.83122,1557.5119 926.70609,1557.3716 926.82189,1556.6039 C 926.92478,1555.922 927.4653,1555.4661 928.65246,1555.06 C 931.21338,1554.1838 931.82136,1552.5849 930.20737,1550.9709 C 928.60002,1549.3635 925.30266,1550.3516 924.52899,1552.6725 C 924.40204,1553.0535 924.01318,1553.1421 923.36731,1552.9371 C 922.1408,1552.5478 922.43326,1551.2892 924.16405,1549.5076 C 925.88054,1547.7408 928.959,1547.4601 931.03793,1548.8808 C 933.42253,1550.5103 933.86548,1553.5217 931.96049,1555.1528 C 931.17234,1555.8276 931.19394,1555.8959 932.62022,1557.2411 C 937.17186,1561.5338 930.58414,1568.5535 925.12665,1565.226 z M 484.1495,1558.578 C 481.39927,1557.6789 479.04057,1555.5698 477.67474,1552.7885 C 476.60642,1550.6129 476.46406,1549.8405 476.46406,1546.2197 C 476.46406,1542.5952 476.60587,1541.8276 477.67932,1539.6416 C 480.27849,1534.3485 485.67118,1532.1251 491.61122,1533.8973 C 496.18828,1535.2628 499.00766,1539.2641 499.44232,1545.0113 C 500.04492,1552.979 495.74116,1558.5788 488.68592,1559.007 C 487.09018,1559.1038 485.21574,1558.9266 484.1495,1558.578 z M 492.54685,1554.5875 C 494.63612,1552.922 495.71085,1550.7251 496.00085,1547.527 C 496.44545,1542.6239 494.62061,1538.665 491.19985,1537.1116 C 486.73454,1535.0838 481.73833,1537.3649 480.34128,1542.0693 C 478.04001,1549.8185 481.88936,1556.4564 488.44351,1556.041 C 490.4053,1555.9166 491.25874,1555.6143 492.54685,1554.5875 z M 880.39875,1558.5518 C 877.67788,1557.5815 876.2564,1556.1519 874.57843,1552.6987 C 873.57761,1550.639 873.42302,1549.7772 873.41628,1546.2197 C 873.40764,1541.6837 874.29634,1538.9585 876.56311,1536.5697 C 879.14049,1533.8535 883.92706,1532.6227 887.81876,1533.6754 C 890.07482,1534.2856 892.7898,1536.7273 893.70092,1538.9652 L 894.35231,1540.5653 L 892.73495,1541.0124 C 891.84543,1541.2582 891.06826,1541.3157 891.00796,1541.14 C 890.56951,1539.8633 888.95046,1537.864 887.77409,1537.1468 C 884.64955,1535.2417 879.86501,1536.7144 877.94374,1540.1727 C 877.00411,1541.864 876.86391,1542.649 876.86391,1546.2197 C 876.86391,1549.7903 877.00411,1550.5754 877.94374,1552.2667 C 879.38617,1554.863 882.05485,1556.2861 884.99479,1556.0267 C 887.59186,1555.7975 889.08289,1554.73 890.46973,1552.1066 C 891.50926,1550.1404 891.60597,1550.0745 893.06132,1550.3401 C 893.89278,1550.4919 894.63523,1550.677 894.71112,1550.7516 C 895.16823,1551.2003 892.67603,1555.5527 891.27563,1556.7514 C 888.51261,1559.1165 884.05219,1559.8548 880.39875,1558.5518 z M 898.67642,1546.2197 L 898.67642,1533.6937 L 900.40414,1533.6937 L 902.13186,1533.6937 L 902.13186,1538.8769 L 902.13186,1544.06 L 908.61083,1544.06 L 915.08979,1544.06 L 915.08979,1538.8769 L 915.08979,1533.6937 L 916.81751,1533.6937 L 918.54523,1533.6937 L 918.54523,1546.2197 L 918.54523,1558.7457 L 916.81751,1558.7457 L 915.08979,1558.7457 L 915.08979,1552.9146 L 915.08979,1547.0836 L 908.61083,1547.0836 L 902.13186,1547.0836 L 902.13186,1552.9146 L 902.13186,1558.7457 L 900.40414,1558.7457 L 898.67642,1558.7457 L 898.67642,1546.2197 z M 427.33193,1557.584 C 426.91619,1557.4754 426.57605,1557.3003 426.57605,1557.1948 C 426.57605,1557.0414 429.76938,1545.0608 436.48263,1520.028 C 436.84557,1518.6746 436.84388,1518.6729 435.49052,1519.0352 C 434.74489,1519.2348 426.13126,1521.5456 416.3491,1524.1703 C 406.56695,1526.795 398.37754,1528.9425 398.1504,1528.9425 C 397.70549,1528.9425 397.10762,1527.1679 397.44042,1526.8351 C 397.55118,1526.7243 406.49625,1524.2582 417.31833,1521.3549 C 428.14041,1518.4515 437.08172,1515.9892 437.1879,1515.883 C 437.29408,1515.7768 437.33087,1503.6864 437.26966,1489.0154 L 437.15835,1462.3408 L 422.04077,1473.3771 C 408.40289,1483.3332 406.86796,1484.3413 406.35893,1483.6776 C 405.08002,1482.01 401.48178,1475.369 401.6818,1475.0453 C 401.80057,1474.8531 409.55523,1471.3104 418.91438,1467.1726 L 435.931,1459.6494 L 411.92462,1445.7928 L 387.91824,1431.9363 L 387.91824,1402.6439 L 387.91824,1373.3516 L 412.64628,1359.0791 L 437.37432,1344.8065 L 437.37432,1325.4363 L 437.37432,1306.0661 L 438.66571,1306.0661 L 439.9571,1306.0661 L 440.06948,1325.5409 L 440.18187,1345.0156 L 464.6812,1359.1235 L 489.18054,1373.2314 L 489.30126,1401.9036 L 489.42198,1430.5758 L 513.17818,1444.3378 C 528.01889,1452.9351 537.25857,1458.0423 537.79823,1457.9464 C 538.27336,1457.862 549.2552,1451.6664 562.20233,1444.1783 L 585.74256,1430.5637 L 585.8549,1410.8601 L 585.96724,1391.1565 L 587.03835,1391.1565 L 588.10946,1391.1565 L 588.2218,1410.8569 L 588.33414,1430.5573 L 613.06218,1444.8193 L 637.7902,1459.0813 L 637.7902,1487.6659 L 637.7902,1516.2506 L 660.53347,1529.3994 C 673.04223,1536.6313 683.91035,1542.8846 684.68476,1543.2956 L 686.09285,1544.0429 L 710.76448,1529.7814 C 724.33389,1521.9376 735.57528,1515.5969 735.74533,1515.6911 C 735.91538,1515.7852 747.06114,1522.2122 760.51367,1529.9733 L 784.97292,1544.0843 L 809.69953,1529.7945 L 834.42623,1515.5047 L 841.6073,1519.6381 C 866.20368,1533.7955 871.62701,1536.9878 871.75983,1537.3863 C 871.8415,1537.6314 871.66191,1538.1691 871.36064,1538.5811 C 870.86214,1539.2628 869.22012,1538.4101 853.10568,1529.101 C 843.36677,1523.475 835.10514,1518.7949 834.74659,1518.7008 C 834.38796,1518.6067 823.14048,1524.8571 809.75214,1532.5906 C 796.36375,1540.3242 785.21808,1546.6516 784.98393,1546.6516 C 784.74974,1546.6516 773.60873,1540.3346 760.22613,1532.6139 C 746.84349,1524.8931 735.7049,1518.5761 735.47373,1518.5761 C 735.24256,1518.5761 724.10246,1524.9012 710.71792,1532.6318 C 697.33342,1540.3625 686.0833,1546.6112 685.71772,1546.5179 C 685.35209,1546.4246 674.22754,1540.0995 660.99646,1532.4622 C 647.76538,1524.8248 636.75119,1518.5761 636.52049,1518.5761 C 636.2898,1518.5761 625.07257,1524.9417 611.5933,1532.7219 C 598.11404,1540.502 586.97775,1546.8176 586.84599,1546.7565 C 586.71422,1546.6955 575.66449,1540.3299 562.29103,1532.6108 C 548.91757,1524.8917 537.78468,1518.5761 537.55129,1518.5761 C 537.31789,1518.5761 529.40603,1523.0361 519.96938,1528.4872 C 510.53273,1533.9383 502.51988,1538.5082 502.16305,1538.6427 C 501.60141,1538.8543 500.10921,1537.3113 500.51427,1536.9378 C 500.59012,1536.8679 508.6699,1532.1904 518.46933,1526.5433 L 536.28648,1516.276 L 536.28648,1488.3632 L 536.28648,1460.4505 L 512.43701,1446.6802 C 499.31979,1439.1065 488.36791,1432.9098 488.09949,1432.9098 C 487.83106,1432.9098 476.8912,1439.0941 463.78867,1446.6526 L 439.9659,1460.3953 L 439.9659,1488.349 L 439.9659,1516.3028 L 457.54542,1526.445 C 467.21416,1532.0232 475.1859,1536.7701 475.26041,1536.9936 C 475.33492,1537.2172 475.14453,1537.7437 474.83734,1538.1639 C 474.32433,1538.8655 472.90282,1538.1342 457.40003,1529.194 C 448.11671,1523.8404 440.24684,1519.3549 439.91142,1519.2262 C 439.43416,1519.0431 438.17652,1523.2186 434.12662,1538.4327 C 431.2804,1549.1249 428.7573,1557.8526 428.51974,1557.8274 C 428.28217,1557.8022 427.74766,1557.6927 427.33193,1557.584 z M 611.33446,1530.0337 L 635.19861,1516.2917 L 635.19861,1488.3494 L 635.19861,1460.4071 L 611.35901,1446.6585 C 598.24721,1439.0967 587.29922,1432.9098 587.03012,1432.9098 C 586.76104,1432.9098 575.81674,1439.1024 562.70946,1446.671 L 538.87806,1460.4322 L 538.87806,1488.3588 L 538.87806,1516.2853 L 562.91707,1530.1568 C 576.13853,1537.7862 587.07178,1543.9715 587.21318,1543.902 C 587.35459,1543.8325 598.20916,1537.5917 611.33446,1530.0337 z M 587.0582,1535.6071 C 586.39372,1534.5929 586.42036,1534.5634 589.73621,1532.6442 C 591.57825,1531.5781 600.76295,1526.2545 610.14665,1520.8142 C 625.03628,1512.1817 627.27666,1511.0079 627.74781,1511.5924 C 628.04476,1511.9608 628.28772,1512.4755 628.28772,1512.7362 C 628.28772,1512.9968 622.41007,1516.6041 615.22624,1520.7523 C 608.04241,1524.9005 598.91677,1530.1703 594.94705,1532.463 L 587.72936,1536.6314 L 587.0582,1535.6071 z M 544.92509,1488.341 L 544.92509,1464.5848 L 546.22089,1464.5848 L 547.51668,1464.5848 L 547.51668,1488.341 L 547.51668,1512.0972 L 546.22089,1512.0972 L 544.92509,1512.0972 L 544.92509,1488.341 z M 610.33414,1456.0023 C 601.05357,1450.6263 591.86962,1445.3019 589.92536,1444.1702 C 586.66776,1442.2742 586.43241,1442.0454 586.92624,1441.2547 C 587.22097,1440.7827 587.64157,1440.3966 587.8609,1440.3966 C 588.6453,1440.3966 628.28772,1463.496 628.28772,1463.953 C 628.28772,1464.2097 628.04476,1464.7251 627.74781,1465.0983 C 627.27432,1465.6935 625.13292,1464.575 610.33414,1456.0023 z M 463.29017,1444.1585 L 486.8304,1430.5302 L 486.9415,1402.7197 L 487.05261,1374.9091 L 463.39957,1361.2475 C 450.39039,1353.7336 439.44044,1347.4685 439.06632,1347.3249 C 438.6372,1347.1603 429.50921,1352.1895 414.33685,1360.9501 L 390.28759,1374.8364 L 390.3987,1402.721 L 390.50982,1430.6057 L 414.26602,1444.3582 C 429.32244,1453.0745 438.33857,1458.0514 438.88608,1457.9488 C 439.3612,1457.8597 450.34304,1451.6541 463.29017,1444.1585 z M 458.55076,1368.3359 C 447.52393,1361.9612 438.44001,1356.5596 438.36426,1356.3324 C 438.28851,1356.1052 438.47539,1355.5789 438.77954,1355.163 C 439.28483,1354.4719 441.08916,1355.4203 459.69337,1366.1555 C 479.47506,1377.5702 480.04108,1377.9332 479.59356,1378.9153 C 479.34022,1379.4714 479.01293,1379.9263 478.86624,1379.9263 C 478.71955,1379.9263 469.57758,1374.7106 458.55076,1368.3359 z M 360.1611,1551.4042 C 359.38596,1550.9316 358.42123,1549.8518 358.01726,1549.0046 C 357.37883,1547.6658 357.36543,1547.4121 357.91486,1547.0646 C 358.98794,1546.3859 359.50072,1546.6003 360.06554,1547.9639 C 360.70651,1549.5113 361.66263,1550.1071 363.50538,1550.1071 C 366.0504,1550.1071 367.75542,1547.1993 366.54098,1544.9301 C 366.02481,1543.9656 363.50888,1543.0596 362.46223,1543.4612 C 361.86569,1543.6901 361.74056,1543.5498 361.8564,1542.7821 C 361.95928,1542.1002 362.49979,1541.6443 363.68693,1541.2382 C 366.24787,1540.362 366.85586,1538.7631 365.24187,1537.1491 C 363.63449,1535.5418 360.33712,1536.5298 359.56349,1538.8507 C 359.43649,1539.2317 359.04766,1539.3203 358.4018,1539.1153 C 357.1753,1538.726 357.4677,1537.4674 359.19854,1535.6858 C 360.915,1533.919 363.99352,1533.6383 366.07243,1535.059 C 368.45703,1536.6885 368.89997,1539.6999 366.99499,1541.331 C 366.20684,1542.0058 366.22841,1542.0741 367.65472,1543.4193 C 372.20637,1547.712 365.61863,1554.7317 360.1611,1551.4042 z M 379.79094,1544.73 C 377.07008,1543.7597 375.64861,1542.3302 373.97061,1538.8769 C 372.96981,1536.8172 372.81523,1535.9554 372.80846,1532.3979 C 372.79983,1527.8619 373.68853,1525.1367 375.95531,1522.7479 C 378.53268,1520.0317 383.31924,1518.8009 387.21096,1519.8536 C 389.46696,1520.4638 392.18199,1522.9055 393.09307,1525.1434 L 393.74449,1526.7435 L 392.12715,1527.1906 C 391.23762,1527.4364 390.46046,1527.4939 390.40013,1527.3182 C 389.9617,1526.0415 388.3426,1524.0422 387.16631,1523.325 C 384.04175,1521.4199 379.25715,1522.8927 377.33593,1526.3509 C 376.39629,1528.0422 376.25611,1528.8273 376.25611,1532.3979 C 376.25611,1535.9685 376.39629,1536.7536 377.33593,1538.4449 C 378.77833,1541.0412 381.44704,1542.4643 384.38698,1542.2049 C 386.98407,1541.9757 388.47506,1540.9082 389.86193,1538.2849 C 390.90145,1536.3186 390.99817,1536.2527 392.45351,1536.5183 C 393.28498,1536.6701 394.02739,1536.8552 394.1033,1536.9298 C 394.56041,1537.3785 392.06822,1541.7309 390.66779,1542.9296 C 387.90475,1545.2947 383.44436,1546.033 379.79094,1544.73 z M 334.14285,1532.3979 L 334.14285,1519.8719 L 335.87057,1519.8719 L 337.5983,1519.8719 L 337.5983,1525.0551 L 337.5983,1530.2382 L 344.07726,1530.2382 L 350.55622,1530.2382 L 350.55622,1525.0551 L 350.55622,1519.8719 L 352.28394,1519.8719 L 354.01167,1519.8719 L 354.01167,1532.3979 L 354.01167,1544.9239 L 352.28394,1544.9239 L 350.55622,1544.9239 L 350.55622,1539.0928 L 350.55622,1533.2618 L 344.07726,1533.2618 L 337.5983,1533.2618 L 337.5983,1539.0928 L 337.5983,1544.9239 L 335.87057,1544.9239 L 334.14285,1544.9239 L 334.14285,1532.3979 z M 379.06366,1489.2048 L 379.06366,1476.6788 L 380.79138,1476.6788 L 382.5191,1476.6788 L 382.5191,1481.862 L 382.5191,1487.0452 L 388.99806,1487.0452 L 395.47703,1487.0452 L 395.47703,1481.862 L 395.47703,1476.6788 L 397.20475,1476.6788 L 398.93247,1476.6788 L 398.93247,1489.2048 L 398.93247,1501.7308 L 397.20475,1501.7308 L 395.47703,1501.7308 L 395.47703,1495.8997 L 395.47703,1490.0687 L 388.99806,1490.0687 L 382.5191,1490.0687 L 382.5191,1495.8997 L 382.5191,1501.7308 L 380.79138,1501.7308 L 379.06366,1501.7308 L 379.06366,1489.2048 z M 493.37503,1428.1262 C 492.84948,1427.3241 492.81339,1426.9934 493.21737,1426.6817 C 494.42737,1425.748 494.76404,1425.7755 495.4789,1426.8665 C 496.19699,1427.9625 496.19539,1428.0408 495.44359,1428.5905 C 494.37149,1429.3745 494.16213,1429.3275 493.37503,1428.1262 z M 499.83077,1424.3251 L 498.72302,1422.4715 L 499.6876,1421.739 C 500.77779,1420.911 500.80514,1420.9296 502.17892,1423.4385 C 503.2661,1425.424 503.26092,1425.4658 501.87517,1425.8912 C 501.10021,1426.1291 500.74728,1425.8588 499.83077,1424.3251 z M 506.39284,1420.7089 L 504.84528,1418.0025 L 505.80766,1417.0984 L 506.77003,1416.1943 L 507.24843,1417.1732 C 507.51155,1417.7117 508.3049,1419.1364 509.01143,1420.3392 L 510.29602,1422.5262 L 509.11821,1422.9708 C 507.98423,1423.3988 507.88282,1423.3147 506.39284,1420.7089 z M 512.88363,1416.9622 C 511.00504,1413.6568 510.91073,1413.3494 511.55631,1412.6361 C 511.93853,1412.2138 512.41407,1411.9225 512.61305,1411.9888 C 512.81204,1412.0551 513.92169,1413.7605 515.07894,1415.7787 C 517.1589,1419.4059 517.17245,1419.454 516.26043,1419.9726 C 515.753,1420.2611 515.24065,1420.5024 515.12187,1420.5089 C 515.00308,1420.5153 513.99588,1418.9193 512.88363,1416.9622 z M 519.3,1413.0729 L 516.78321,1408.6682 L 517.75032,1407.8851 L 518.71744,1407.102 L 520.40834,1410.0355 C 521.33834,1411.6489 522.57339,1413.7865 523.15291,1414.7857 C 524.18285,1416.5615 524.1876,1416.6126 523.36403,1417.0534 C 522.90063,1417.3014 522.36293,1417.4983 522.16914,1417.491 C 521.97535,1417.4836 520.68424,1415.4955 519.3,1413.0729 z M 527.64786,1403.6825 L 527.64786,1391.1565 L 529.37558,1391.1565 L 531.10331,1391.1565 L 531.10331,1396.3397 L 531.10331,1401.5229 L 537.58227,1401.5229 L 544.06123,1401.5229 L 544.06123,1396.3397 L 544.06123,1391.1565 L 545.78895,1391.1565 L 547.51668,1391.1565 L 547.51668,1403.6825 L 547.51668,1416.2085 L 545.78895,1416.2085 L 544.06123,1416.2085 L 544.06123,1410.3774 L 544.06123,1404.5464 L 537.58227,1404.5464 L 531.10331,1404.5464 L 531.10331,1410.3774 L 531.10331,1416.2085 L 529.37558,1416.2085 L 527.64786,1416.2085 L 527.64786,1403.6825 z M 583.06166,1387.5334 C 580.31143,1386.6343 577.95273,1384.5252 576.5869,1381.7438 C 575.51858,1379.5683 575.37622,1378.7959 575.37622,1375.1751 C 575.37622,1371.5506 575.51803,1370.783 576.59148,1368.5969 C 579.19065,1363.3039 584.58334,1361.0805 590.52338,1362.8527 C 595.10044,1364.2182 597.91982,1368.2195 598.35448,1373.9667 C 598.95708,1381.9344 594.65332,1387.5342 587.59808,1387.9624 C 586.00234,1388.0592 584.1279,1387.882 583.06166,1387.5334 z M 591.45901,1383.5429 C 593.54828,1381.8774 594.62301,1379.6805 594.91301,1376.4824 C 595.35761,1371.5793 593.53277,1367.6204 590.11201,1366.067 C 585.6467,1364.0392 580.65048,1366.3203 579.25344,1371.0247 C 576.95217,1378.7739 580.80152,1385.4118 587.35567,1384.9964 C 589.31746,1384.872 590.1709,1384.5697 591.45901,1383.5429 z M 602.80382,1375.1751 L 602.80382,1362.6491 L 604.53155,1362.6491 L 606.25927,1362.6491 L 606.25927,1367.8323 L 606.25927,1373.0154 L 612.73823,1373.0154 L 619.21719,1373.0154 L 619.21719,1367.8323 L 619.21719,1362.6491 L 620.94492,1362.6491 L 622.67264,1362.6491 L 622.67264,1375.1751 L 622.67264,1387.7011 L 620.94492,1387.7011 L 619.21719,1387.7011 L 619.21719,1381.87 L 619.21719,1376.0389 L 612.73823,1376.0389 L 606.25927,1376.0389 L 606.25927,1381.87 L 606.25927,1387.7011 L 604.53155,1387.7011 L 602.80382,1387.7011 L 602.80382,1375.1751 z M 479.80594,1308.2271 C 479.0308,1307.7545 478.06607,1306.6747 477.6621,1305.8276 C 477.02367,1304.4888 477.01027,1304.2351 477.5597,1303.8876 C 478.63278,1303.2089 479.14556,1303.4233 479.71038,1304.7869 C 480.35135,1306.3343 481.30747,1306.93 483.15022,1306.93 C 485.69523,1306.93 487.40026,1304.0222 486.18582,1301.753 C 485.66965,1300.7886 483.15372,1299.8825 482.10707,1300.2841 C 481.51053,1300.513 481.3854,1300.3728 481.50123,1299.6051 C 481.60412,1298.9232 482.14463,1298.4673 483.33177,1298.0611 C 485.89271,1297.1849 486.5007,1295.5861 484.88671,1293.9721 C 483.27932,1292.3647 479.98196,1293.3528 479.20833,1295.6737 C 479.08132,1296.0547 478.6925,1296.1432 478.04664,1295.9382 C 476.82014,1295.549 477.11254,1294.2903 478.84338,1292.5088 C 480.55983,1290.742 483.63836,1290.4613 485.71727,1291.8819 C 488.10187,1293.5115 488.54481,1296.5228 486.63983,1298.1539 C 485.85168,1298.8287 485.87325,1298.897 487.29956,1300.2422 C 491.85121,1304.535 485.26347,1311.5546 479.80594,1308.2271 z M 435.07809,1301.553 C 432.35723,1300.5826 430.93576,1299.1531 429.25776,1295.6998 C 428.25696,1293.6402 428.10238,1292.7784 428.09561,1289.2208 C 428.08698,1284.6849 428.97567,1281.9597 431.24246,1279.5708 C 433.81982,1276.8547 438.60639,1275.6239 442.49811,1276.6765 C 444.7541,1277.2868 447.46913,1279.7284 448.38022,1281.9664 L 449.03163,1283.5665 L 447.4143,1284.0135 C 446.52477,1284.2594 445.7476,1284.3168 445.68727,1284.1411 C 445.24884,1282.8644 443.62974,1280.8652 442.45345,1280.148 C 439.32889,1278.2429 434.54429,1279.7156 432.62308,1283.1738 C 431.68344,1284.8652 431.54325,1285.6502 431.54325,1289.2208 C 431.54325,1292.7915 431.68344,1293.5765 432.62308,1295.2679 C 434.06547,1297.8642 436.73419,1299.2873 439.67413,1299.0278 C 442.27122,1298.7987 443.76221,1297.7311 445.14907,1295.1078 C 446.1886,1293.1415 446.28532,1293.0756 447.74066,1293.3412 C 448.57212,1293.493 449.31453,1293.6782 449.39045,1293.7527 C 449.84756,1294.2014 447.35537,1298.5539 445.95493,1299.7526 C 443.19189,1302.1176 438.73151,1302.856 435.07809,1301.553 z M 453.35576,1289.2208 L 453.35576,1276.6948 L 455.08348,1276.6948 L 456.8112,1276.6948 L 456.8112,1281.878 L 456.8112,1287.0612 L 463.29017,1287.0612 L 469.76913,1287.0612 L 469.76913,1281.878 L 469.76913,1276.6948 L 471.49685,1276.6948 L 473.22458,1276.6948 L 473.22458,1289.2208 L 473.22458,1301.7468 L 471.49685,1301.7468 L 469.76913,1301.7468 L 469.76913,1295.9158 L 469.76913,1290.0847 L 463.29017,1290.0847 L 456.8112,1290.0847 L 456.8112,1295.9158 L 456.8112,1301.7468 L 455.08348,1301.7468 L 453.35576,1301.7468 L 453.35576,1289.2208 z"
       id="path2453"
       style="fill:#000000" />
  </g>
</svg>
